<svg data-v-423bf9ae="" xmlns="http://www.w3.org/2000/svg" viewBox="0 0 715 91" class="iconLeft"><!----><!----><!----><g data-v-423bf9ae="" id="0df05bcc-c591-482c-845d-2fdeb2f22176" fill="black" transform="matrix(5.703421805055199,0,0,5.703421805055199,104.55386529599951,-3.0228150624331036)"><path d="M7.04 13.55L5.26 10.95L3.75 10.95L3.75 13.55L0.98 13.55L0.98 3.75L5.46 3.75L5.46 3.75Q6.79 3.75 7.77 4.19L7.77 4.19L7.77 4.19Q8.75 4.63 9.28 5.45L9.28 5.45L9.28 5.45Q9.81 6.27 9.81 7.38L9.81 7.38L9.81 7.38Q9.81 8.44 9.32 9.23L9.32 9.23L9.32 9.23Q8.82 10.02 7.90 10.47L7.90 10.47L10.01 13.55L7.04 13.55ZM7.01 7.38L7.01 7.38Q7.01 6.69 6.58 6.31L6.58 6.31L6.58 6.31Q6.15 5.94 5.29 5.94L5.29 5.94L3.75 5.94L3.75 8.81L5.29 8.81L5.29 8.81Q6.15 8.81 6.58 8.43L6.58 8.43L6.58 8.43Q7.01 8.06 7.01 7.38L7.01 7.38ZM18.97 9.77L18.97 9.77Q18.97 9.80 18.93 10.43L18.93 10.43L13.41 10.43L13.41 10.43Q13.58 11.02 14.06 11.33L14.06 11.33L14.06 11.33Q14.55 11.65 15.27 11.65L15.27 11.65L15.27 11.65Q15.82 11.65 16.22 11.49L16.22 11.49L16.22 11.49Q16.62 11.34 17.02 10.99L17.02 10.99L18.42 12.45L18.42 12.45Q17.32 13.68 15.19 13.68L15.19 13.68L15.19 13.68Q13.86 13.68 12.85 13.17L12.85 13.17L12.85 13.17Q11.84 12.67 11.29 11.77L11.29 11.77L11.29 11.77Q10.74 10.88 10.74 9.74L10.74 9.74L10.74 9.74Q10.74 8.62 11.28 7.73L11.28 7.73L11.28 7.73Q11.82 6.85 12.77 6.34L12.77 6.34L12.77 6.34Q13.72 5.84 14.91 5.84L14.91 5.84L14.91 5.84Q16.04 5.84 16.97 6.31L16.97 6.31L16.97 6.31Q17.89 6.78 18.43 7.66L18.43 7.66L18.43 7.66Q18.97 8.55 18.97 9.77L18.97 9.77ZM14.92 7.73L14.92 7.73Q14.31 7.73 13.89 8.08L13.89 8.08L13.89 8.08Q13.48 8.43 13.37 9.03L13.37 9.03L16.48 9.03L16.48 9.03Q16.37 8.43 15.95 8.08L15.95 8.08L15.95 8.08Q15.54 7.73 14.92 7.73L14.92 7.73ZM22.96 13.68L22.96 13.68Q22.01 13.68 21.08 13.46L21.08 13.46L21.08 13.46Q20.16 13.24 19.60 12.89L19.60 12.89L20.40 11.07L20.40 11.07Q20.92 11.40 21.63 11.58L21.63 11.58L21.63 11.58Q22.34 11.77 23.04 11.77L23.04 11.77L23.04 11.77Q23.69 11.77 23.96 11.64L23.96 11.64L23.96 11.64Q24.23 11.51 24.23 11.26L24.23 11.26L24.23 11.26Q24.23 11.00 23.91 10.90L23.91 10.90L23.91 10.90Q23.58 10.79 22.86 10.70L22.86 10.70L22.86 10.70Q21.95 10.58 21.31 10.40L21.31 10.40L21.31 10.40Q20.68 10.22 20.22 9.73L20.22 9.73L20.22 9.73Q19.75 9.24 19.75 8.36L19.75 8.36L19.75 8.36Q19.75 7.63 20.19 7.06L20.19 7.06L20.19 7.06Q20.62 6.50 21.45 6.17L21.45 6.17L21.45 6.17Q22.29 5.84 23.45 5.84L23.45 5.84L23.45 5.84Q24.28 5.84 25.09 6.01L25.09 6.01L25.09 6.01Q25.90 6.17 26.45 6.48L26.45 6.48L25.65 8.29L25.65 8.29Q24.64 7.73 23.46 7.73L23.46 7.73L23.46 7.73Q22.83 7.73 22.54 7.87L22.54 7.87L22.54 7.87Q22.25 8.02 22.25 8.26L22.25 8.26L22.25 8.26Q22.25 8.53 22.57 8.63L22.57 8.63L22.57 8.63Q22.89 8.74 23.63 8.85L23.63 8.85L23.63 8.85Q24.57 8.99 25.19 9.17L25.19 9.17L25.19 9.17Q25.80 9.35 26.26 9.83L26.26 9.83L26.26 9.83Q26.71 10.32 26.71 11.19L26.71 11.19L26.71 11.19Q26.71 11.90 26.28 12.47L26.28 12.47L26.28 12.47Q25.84 13.03 25.00 13.36L25.00 13.36L25.00 13.36Q24.15 13.68 22.96 13.68L22.96 13.68ZM31.67 13.68L31.67 13.68Q30.45 13.68 29.47 13.17L29.47 13.17L29.47 13.17Q28.49 12.67 27.94 11.77L27.94 11.77L27.94 11.77Q27.38 10.88 27.38 9.74L27.38 9.74L27.38 9.74Q27.38 8.62 27.94 7.73L27.94 7.73L27.94 7.73Q28.49 6.83 29.46 6.33L29.46 6.33L29.46 6.33Q30.44 5.84 31.67 5.84L31.67 5.84L31.67 5.84Q32.90 5.84 33.88 6.33L33.88 6.33L33.88 6.33Q34.86 6.83 35.41 7.72L35.41 7.72L35.41 7.72Q35.95 8.61 35.95 9.74L35.95 9.74L35.95 9.74Q35.95 10.88 35.41 11.77L35.41 11.77L35.41 11.77Q34.86 12.67 33.88 13.17L33.88 13.17L33.88 13.17Q32.90 13.68 31.67 13.68L31.67 13.68ZM31.67 11.56L31.67 11.56Q32.37 11.56 32.82 11.08L32.82 11.08L32.82 11.08Q33.26 10.60 33.26 9.74L33.26 9.74L33.26 9.74Q33.26 8.90 32.82 8.43L32.82 8.43L32.82 8.43Q32.37 7.95 31.67 7.95L31.67 7.95L31.67 7.95Q30.97 7.95 30.52 8.43L30.52 8.43L30.52 8.43Q30.07 8.90 30.07 9.74L30.07 9.74L30.07 9.74Q30.07 10.60 30.52 11.08L30.52 11.08L30.52 11.08Q30.97 11.56 31.67 11.56L31.67 11.56ZM42.50 5.96L45.16 5.96L45.16 13.55L42.63 13.55L42.63 12.74L42.63 12.74Q42.21 13.20 41.62 13.44L41.62 13.44L41.62 13.44Q41.03 13.68 40.38 13.68L40.38 13.68L40.38 13.68Q38.91 13.68 38.03 12.81L38.03 12.81L38.03 12.81Q37.16 11.94 37.16 10.21L37.16 10.21L37.16 5.96L39.82 5.96L39.82 9.77L39.82 9.77Q39.82 10.63 40.14 11.02L40.14 11.02L40.14 11.02Q40.46 11.41 41.08 11.41L41.08 11.41L41.08 11.41Q41.71 11.41 42.10 10.97L42.10 10.97L42.10 10.97Q42.50 10.53 42.50 9.62L42.50 9.62L42.50 5.96ZM49.41 6.87L49.41 6.87Q49.81 6.36 50.46 6.10L50.46 6.10L50.46 6.10Q51.11 5.84 51.95 5.84L51.95 5.84L51.95 8.23L51.95 8.23Q51.59 8.19 51.35 8.19L51.35 8.19L51.35 8.19Q50.50 8.19 50.02 8.65L50.02 8.65L50.02 8.65Q49.53 9.11 49.53 10.07L49.53 10.07L49.53 13.55L46.87 13.55L46.87 5.96L49.41 5.96L49.41 6.87ZM56.95 13.68L56.95 13.68Q55.69 13.68 54.70 13.17L54.70 13.17L54.70 13.17Q53.70 12.67 53.15 11.77L53.15 11.77L53.15 11.77Q52.60 10.88 52.60 9.74L52.60 9.74L52.60 9.74Q52.60 8.61 53.15 7.72L53.15 7.72L53.15 7.72Q53.70 6.83 54.70 6.33L54.70 6.33L54.70 6.33Q55.69 5.84 56.95 5.84L56.95 5.84L56.95 5.84Q58.24 5.84 59.18 6.39L59.18 6.39L59.18 6.39Q60.12 6.94 60.51 7.92L60.51 7.92L58.45 8.97L58.45 8.97Q57.93 7.95 56.94 7.95L56.94 7.95L56.94 7.95Q56.22 7.95 55.75 8.43L55.75 8.43L55.75 8.43Q55.29 8.90 55.29 9.74L55.29 9.74L55.29 9.74Q55.29 10.60 55.75 11.08L55.75 11.08L55.75 11.08Q56.22 11.56 56.94 11.56L56.94 11.56L56.94 11.56Q57.93 11.56 58.45 10.54L58.45 10.54L60.51 11.59L60.51 11.59Q60.12 12.57 59.18 13.13L59.18 13.13L59.18 13.13Q58.24 13.68 56.95 13.68L56.95 13.68ZM69.27 9.77L69.27 9.77Q69.27 9.80 69.23 10.43L69.23 10.43L63.71 10.43L63.71 10.43Q63.88 11.02 64.36 11.33L64.36 11.33L64.36 11.33Q64.85 11.65 65.58 11.65L65.58 11.65L65.58 11.65Q66.12 11.65 66.52 11.49L66.52 11.49L66.52 11.49Q66.92 11.34 67.33 10.99L67.33 10.99L68.73 12.45L68.73 12.45Q67.62 13.68 65.49 13.68L65.49 13.68L65.49 13.68Q64.16 13.68 63.15 13.17L63.15 13.17L63.15 13.17Q62.15 12.67 61.59 11.77L61.59 11.77L61.59 11.77Q61.04 10.88 61.04 9.74L61.04 9.74L61.04 9.74Q61.04 8.62 61.58 7.73L61.58 7.73L61.58 7.73Q62.12 6.85 63.07 6.34L63.07 6.34L63.07 6.34Q64.02 5.84 65.21 5.84L65.21 5.84L65.21 5.84Q66.35 5.84 67.27 6.31L67.27 6.31L67.27 6.31Q68.19 6.78 68.73 7.66L68.73 7.66L68.73 7.66Q69.27 8.55 69.27 9.77L69.27 9.77ZM65.23 7.73L65.23 7.73Q64.61 7.73 64.20 8.08L64.20 8.08L64.20 8.08Q63.78 8.43 63.67 9.03L63.67 9.03L66.78 9.03L66.78 9.03Q66.67 8.43 66.25 8.08L66.25 8.08L66.25 8.08Q65.84 7.73 65.23 7.73L65.23 7.73ZM87.43 3.75L90.08 3.75L86.90 13.55L83.93 13.55L82.05 7.59L80.09 13.55L77.13 13.55L73.95 3.75L76.80 3.75L78.78 10.01L80.85 3.75L83.40 3.75L85.37 10.07L87.43 3.75ZM94.39 5.84L94.39 5.84Q96.28 5.84 97.27 6.70L97.27 6.70L97.27 6.70Q98.27 7.56 98.27 9.34L98.27 9.34L98.27 13.55L95.79 13.55L95.79 12.57L95.79 12.57Q95.21 13.68 93.55 13.68L93.55 13.68L93.55 13.68Q92.67 13.68 92.02 13.37L92.02 13.37L92.02 13.37Q91.38 13.06 91.05 12.54L91.05 12.54L91.05 12.54Q90.72 12.01 90.72 11.34L90.72 11.34L90.72 11.34Q90.72 10.26 91.55 9.67L91.55 9.67L91.55 9.67Q92.37 9.07 94.09 9.07L94.09 9.07L95.61 9.07L95.61 9.07Q95.54 7.87 94.00 7.87L94.00 7.87L94.00 7.87Q93.45 7.87 92.89 8.04L92.89 8.04L92.89 8.04Q92.33 8.22 91.94 8.53L91.94 8.53L91.04 6.72L91.04 6.72Q91.67 6.30 92.58 6.07L92.58 6.07L92.58 6.07Q93.48 5.84 94.39 5.84L94.39 5.84ZM94.29 12.00L94.29 12.00Q94.75 12.00 95.10 11.77L95.10 11.77L95.10 11.77Q95.45 11.55 95.61 11.12L95.61 11.12L95.61 10.46L94.46 10.46L94.46 10.46Q93.30 10.46 93.30 11.23L93.30 11.23L93.30 11.23Q93.30 11.58 93.56 11.79L93.56 11.79L93.56 11.79Q93.83 12.00 94.29 12.00L94.29 12.00ZM99.95 13.55L99.95 3.16L102.61 3.16L102.61 13.55L99.95 13.55ZM104.33 13.55L104.33 3.16L106.99 3.16L106.99 13.55L104.33 13.55Z"></path></g><!----><g data-v-423bf9ae="" id="55a08f4a-e629-4942-b4b5-5d81827e19ce" transform="matrix(1.0530379793276954,0,0,1.0530379793276954,-5.347351866387328,-5.2793510223493385)" stroke="none" fill="black"><path d="M47.417 64.647V28.16c-1.451-.466-6.963-2.073-13.977-2.073-4.644 0-9.05.695-13.103 2.068v36.483c4.07-1.331 8.474-2.005 13.103-2.005 6.763 0 12.053 1.418 13.977 2.014zm-4.635-26.035l-.396 1.099c-.084-.031-8.506-2.991-17.021.001l-.387-1.102c8.918-3.134 17.445-.128 17.804.002zm0 7.006l-.396 1.098c-.084-.031-8.506-2.991-17.021.002l-.387-1.102c8.918-3.135 17.445-.128 17.804.002zm-17.418 8.106l-.387-1.102c8.918-3.135 17.446-.128 17.805.001l-.396 1.099c-.085-.031-8.507-2.992-17.022.002zM68.986 52.039l.002-.202 6.675-17.357v-6.32c-1.469-.471-6.982-2.073-13.977-2.073-4.645 0-9.048.702-13.102 2.075v36.484c4.071-1.331 8.472-2.014 13.102-2.014 6.756 0 12.047 1.417 13.977 2.014V47.721l-2.325 6.011-4.414 4.927.05-5.409c-2.876-.706-9.092-1.73-15.364.474l-.387-1.102c6.43-2.26 12.654-1.328 15.763-.583zm2.043-13.427l-.396 1.099c-.084-.031-8.505-2.991-17.021.001l-.387-1.102c8.918-3.134 17.444-.128 17.804.002zm-17.418 8.106l-.387-1.102c8.919-3.135 17.445-.128 17.805.001l-.396 1.098c-.085-.03-8.506-2.99-17.022.003z"></path><path d="M80.5 35.216l-3.669 9.486v21.582l-.782-.282c-.061-.022-6.202-2.201-14.363-2.201-4.793 0-9.333.741-13.493 2.203l-.196.069-.196-.07c-.061-.022-6.202-2.201-14.362-2.201-4.793 0-9.333.741-13.493 2.203l-.777.273V31.032H15.5v38.881h65V35.216z"></path><path d="M76.729 34.961l-1.065 2.771-5.547 14.423-.001.181-.004 1.22-.008 2.037 2.294-2.56 3.266-8.493 1.168-3.036 2.178-5.666L76.832 35zM80.5 31.032h-3.668v2.717L80.5 35.16z"></path><circle cx="28.122" cy="88.492" r="2.242"></circle><path d="M8.406 27.812l-.991 2.008-2.216.322 1.603 1.563-.378 2.207 1.982-1.042 1.982 1.042-.379-2.207 1.604-1.563-2.216-.322zM28.869 8.205l-.684-1.386-.684 1.386-1.53.222 1.107 1.079-.261 1.524 1.368-.719 1.368.719-.261-1.524 1.107-1.079zM86.98 69.95l1.369.719-.262-1.523 1.107-1.079-1.529-.223-.685-1.386-.684 1.386-1.529.223 1.107 1.079-.262 1.523zM86.98 14.135l-.902 2.777h-2.919l2.361 1.717-.902 2.776 2.362-1.716 2.362 1.716-.902-2.776 2.362-1.717h-2.92z"></path><circle cx="79.024" cy="7.509" r="2.242"></circle><circle cx="88.517" cy="48.986" r="1.786"></circle><circle cx="14.852" cy="17.155" r="2.361"></circle><path d="M21.877 88.514c.326.083.655.156.988.223l.099-.49A21.421 21.421 0 0 1 22 88.03l-.123.484zM6.758 71.81c.097.653.228 1.309.388 1.95l.485-.122a19.602 19.602 0 0 1-.379-1.901l-.494.073zM18.134 87.172c.597.283 1.216.54 1.838.763l.169-.471a19.734 19.734 0 0 1-1.793-.744l-.214.452zM7.04 68.852c0-.327.008-.655.024-.985l-.499-.024a20.042 20.042 0 0 0-.001 1.989l.499-.024a19.031 19.031 0 0 1-.023-.956zM11.787 82.448c.441.49.914.964 1.404 1.41l.337-.37a19.744 19.744 0 0 1-1.37-1.375l-.371.335zM7.724 75.663c.222.619.478 1.237.762 1.837l.452-.214a19.728 19.728 0 0 1-.743-1.792l-.471.169zM9.423 79.253a20.34 20.34 0 0 0 1.104 1.655l.402-.297a20.23 20.23 0 0 1-1.077-1.615l-.429.257zM14.726 85.124c.532.396 1.088.769 1.653 1.108l.258-.429a19.786 19.786 0 0 1-1.612-1.081l-.299.402zM7.427 64.949l-.49-.098a20.43 20.43 0 0 0-.174.998l.494.073c.049-.324.106-.649.17-.973zM89.076 76.982l.498.046c.031-.336.05-.675.057-1.017l-.5-.01c-.007.33-.026.657-.055.981zM85.711 84.731l.374.332c.493-.555.944-1.152 1.342-1.773l-.421-.27a13.63 13.63 0 0 1-1.295 1.711zM82.404 87.441l.252.432c.639-.373 1.253-.8 1.826-1.27l-.317-.387c-.553.453-1.145.866-1.761 1.225zM88.015 81.128l.459.199c.295-.679.538-1.387.721-2.104l-.484-.124a13.682 13.682 0 0 1-.696 2.029zM78.417 88.985l.104.489a13.98 13.98 0 0 0 2.131-.636l-.181-.466a13.28 13.28 0 0 1-2.054.613zM75.302 89.28l-.01.5a13.827 13.827 0 0 0 1.018-.016l-.025-.499c-.326.017-.652.024-.983.015zM88.267 36.377h.5v2h-.5zM88.267 28.377h.5v2h-.5zM88.267 40.377h.5v2h-.5zM88.267 32.377h.5v2h-.5z"></path></g><!----></svg>