<svg data-v-423bf9ae="" xmlns="http://www.w3.org/2000/svg" viewBox="0 0 60.095476557512896 60" class="icon"><!----><!----><!----><!----><g data-v-423bf9ae="" id="27bcc119-9eba-4bcb-8060-087512376308" transform="matrix(0.7020253195517968,0,0,0.7020253195517968,-3.6498302336686095,-3.697567639421443)" stroke="none" fill="black"><path d="M47.417 64.647V28.16c-1.451-.466-6.963-2.073-13.977-2.073-4.644 0-9.05.695-13.103 2.068v36.483c4.07-1.331 8.474-2.005 13.103-2.005 6.763 0 12.053 1.418 13.977 2.014zm-4.635-26.035l-.396 1.099c-.084-.031-8.506-2.991-17.021.001l-.387-1.102c8.918-3.134 17.445-.128 17.804.002zm0 7.006l-.396 1.098c-.084-.031-8.506-2.991-17.021.002l-.387-1.102c8.918-3.135 17.445-.128 17.804.002zm-17.418 8.106l-.387-1.102c8.918-3.135 17.446-.128 17.805.001l-.396 1.099c-.085-.031-8.507-2.992-17.022.002zM68.986 52.039l.002-.202 6.675-17.357v-6.32c-1.469-.471-6.982-2.073-13.977-2.073-4.645 0-9.048.702-13.102 2.075v36.484c4.071-1.331 8.472-2.014 13.102-2.014 6.756 0 12.047 1.417 13.977 2.014V47.721l-2.325 6.011-4.414 4.927.05-5.409c-2.876-.706-9.092-1.73-15.364.474l-.387-1.102c6.43-2.26 12.654-1.328 15.763-.583zm2.043-13.427l-.396 1.099c-.084-.031-8.505-2.991-17.021.001l-.387-1.102c8.918-3.134 17.444-.128 17.804.002zm-17.418 8.106l-.387-1.102c8.919-3.135 17.445-.128 17.805.001l-.396 1.098c-.085-.03-8.506-2.99-17.022.003z"></path><path d="M80.5 35.216l-3.669 9.486v21.582l-.782-.282c-.061-.022-6.202-2.201-14.363-2.201-4.793 0-9.333.741-13.493 2.203l-.196.069-.196-.07c-.061-.022-6.202-2.201-14.362-2.201-4.793 0-9.333.741-13.493 2.203l-.777.273V31.032H15.5v38.881h65V35.216z"></path><path d="M76.729 34.961l-1.065 2.771-5.547 14.423-.001.181-.004 1.22-.008 2.037 2.294-2.56 3.266-8.493 1.168-3.036 2.178-5.666L76.832 35zM80.5 31.032h-3.668v2.717L80.5 35.16z"></path><circle cx="28.122" cy="88.492" r="2.242"></circle><path d="M8.406 27.812l-.991 2.008-2.216.322 1.603 1.563-.378 2.207 1.982-1.042 1.982 1.042-.379-2.207 1.604-1.563-2.216-.322zM28.869 8.205l-.684-1.386-.684 1.386-1.53.222 1.107 1.079-.261 1.524 1.368-.719 1.368.719-.261-1.524 1.107-1.079zM86.98 69.95l1.369.719-.262-1.523 1.107-1.079-1.529-.223-.685-1.386-.684 1.386-1.529.223 1.107 1.079-.262 1.523zM86.98 14.135l-.902 2.777h-2.919l2.361 1.717-.902 2.776 2.362-1.716 2.362 1.716-.902-2.776 2.362-1.717h-2.92z"></path><circle cx="79.024" cy="7.509" r="2.242"></circle><circle cx="88.517" cy="48.986" r="1.786"></circle><circle cx="14.852" cy="17.155" r="2.361"></circle><path d="M21.877 88.514c.326.083.655.156.988.223l.099-.49A21.421 21.421 0 0 1 22 88.03l-.123.484zM6.758 71.81c.097.653.228 1.309.388 1.95l.485-.122a19.602 19.602 0 0 1-.379-1.901l-.494.073zM18.134 87.172c.597.283 1.216.54 1.838.763l.169-.471a19.734 19.734 0 0 1-1.793-.744l-.214.452zM7.04 68.852c0-.327.008-.655.024-.985l-.499-.024a20.042 20.042 0 0 0-.001 1.989l.499-.024a19.031 19.031 0 0 1-.023-.956zM11.787 82.448c.441.49.914.964 1.404 1.41l.337-.37a19.744 19.744 0 0 1-1.37-1.375l-.371.335zM7.724 75.663c.222.619.478 1.237.762 1.837l.452-.214a19.728 19.728 0 0 1-.743-1.792l-.471.169zM9.423 79.253a20.34 20.34 0 0 0 1.104 1.655l.402-.297a20.23 20.23 0 0 1-1.077-1.615l-.429.257zM14.726 85.124c.532.396 1.088.769 1.653 1.108l.258-.429a19.786 19.786 0 0 1-1.612-1.081l-.299.402zM7.427 64.949l-.49-.098a20.43 20.43 0 0 0-.174.998l.494.073c.049-.324.106-.649.17-.973zM89.076 76.982l.498.046c.031-.336.05-.675.057-1.017l-.5-.01c-.007.33-.026.657-.055.981zM85.711 84.731l.374.332c.493-.555.944-1.152 1.342-1.773l-.421-.27a13.63 13.63 0 0 1-1.295 1.711zM82.404 87.441l.252.432c.639-.373 1.253-.8 1.826-1.27l-.317-.387c-.553.453-1.145.866-1.761 1.225zM88.015 81.128l.459.199c.295-.679.538-1.387.721-2.104l-.484-.124a13.682 13.682 0 0 1-.696 2.029zM78.417 88.985l.104.489a13.98 13.98 0 0 0 2.131-.636l-.181-.466a13.28 13.28 0 0 1-2.054.613zM75.302 89.28l-.01.5a13.827 13.827 0 0 0 1.018-.016l-.025-.499c-.326.017-.652.024-.983.015zM88.267 36.377h.5v2h-.5zM88.267 28.377h.5v2h-.5zM88.267 40.377h.5v2h-.5zM88.267 32.377h.5v2h-.5z"></path></g><!----></svg>