<svg data-v-fde0c5aa="" xmlns="http://www.w3.org/2000/svg" viewBox="0 0 300 300" class="iconAbove"><!----><defs data-v-fde0c5aa=""><linearGradient data-v-fde0c5aa="" gradientTransform="rotate(25)" id="eacbeddd-2818-42c4-9e7f-4e2aaaef14fa" x1="0%" y1="0%" x2="100%" y2="0%"><stop data-v-fde0c5aa="" offset="0%" stop-color="#395ECA" stop-opacity="1"></stop><stop data-v-fde0c5aa="" offset="100%" stop-color="#848BD8" stop-opacity="1"></stop></linearGradient></defs><rect data-v-fde0c5aa="" fill="url(#eacbeddd-2818-42c4-9e7f-4e2aaaef14fa)" x="0" y="0" width="300px" height="300px" class="logo-background-square"></rect><defs data-v-fde0c5aa=""><!----></defs><g data-v-fde0c5aa="" id="f7d87811-31f6-4c5d-8981-de2d24cfcdb9" fill="#ffffff" transform="matrix(2.768903268371079,0,0,2.768903268371079,16.594248927090963,162.7241736548621)"><path d="M6.29 13.52L9.41 13.52L6.82 10.16C8.03 9.83 8.89 8.90 8.89 7.55C8.89 5.39 7 4.36 5.15 4.36L1.23 4.36L1.23 13.52L3.79 13.52L3.79 9.87ZM3.79 6.75L4.85 6.75C5.66 6.75 6.26 6.93 6.26 7.68C6.26 8.34 5.66 8.65 4.85 8.65C4.46 8.65 4.09 8.57 3.79 8.46ZM17.10 9.87C17.10 7.72 15.70 6.34 13.73 6.34C11.62 6.34 10.02 8.07 10.02 10.14C10.02 12.36 11.88 13.73 13.86 13.73C14.90 13.73 15.68 13.52 16.16 13.22L16.16 11.21C15.78 11.43 15.05 11.68 14 11.68C13.21 11.68 12.55 11.35 12.35 10.65L17.10 10.65ZM12.37 9.34C12.56 8.63 13.04 8.29 13.66 8.29C14.27 8.29 14.88 8.68 14.88 9.34ZM20.84 6.34C19.18 6.34 17.92 7.25 17.92 8.68C17.92 9.65 18.38 10.32 19.40 10.64L20.10 10.86C20.64 11.03 20.95 11.13 20.95 11.39C20.95 11.72 20.70 11.83 20.18 11.83C19.52 11.83 18.61 11.53 17.95 11.12L17.95 12.95C18.58 13.38 19.51 13.73 20.55 13.73C22.04 13.73 23.41 12.77 23.41 11.40C23.41 10.40 22.82 9.76 21.59 9.45L21.16 9.34C20.58 9.19 20.43 9.11 20.43 8.85C20.43 8.48 20.82 8.31 21.26 8.31C21.94 8.31 22.56 8.64 23.04 8.93L23.04 7.08C22.56 6.63 21.74 6.34 20.84 6.34ZM27.99 6.34C26.04 6.34 24.16 7.89 24.16 10.04C24.16 12.18 26.04 13.73 27.99 13.73C29.93 13.73 31.81 12.18 31.81 10.04C31.81 7.89 29.93 6.34 27.99 6.34ZM27.99 8.60C28.49 8.60 29.29 8.85 29.29 10.04C29.29 11.22 28.49 11.47 27.99 11.47C27.48 11.47 26.69 11.22 26.69 10.04C26.69 8.85 27.48 8.60 27.99 8.60ZM39.85 6.55L37.50 6.55L37.49 10.10C37.49 11.06 37.21 11.47 36.52 11.47C35.82 11.47 35.55 11.06 35.55 10.10L35.53 6.55L33.18 6.55L33.18 10.73C33.18 12.62 34.58 13.73 36.52 13.73C38.46 13.73 39.85 12.62 39.85 10.73ZM45.84 6.41C44.97 6.41 44.49 7.05 44.05 7.79L44.05 6.55L41.70 6.55L41.70 13.52L44.05 13.52L44.05 9.94C44.37 9.32 44.86 8.90 45.50 8.90C45.98 8.90 46.29 9.02 46.63 9.23L46.63 6.62C46.40 6.49 46.14 6.41 45.84 6.41ZM51.06 6.34C48.99 6.34 47.39 8.13 47.39 10.08C47.39 12.02 48.99 13.73 51.06 13.73C52.13 13.73 52.61 13.38 53.09 13.02L53.09 10.96C52.66 11.27 52.16 11.47 51.38 11.47C50.60 11.47 49.92 10.99 49.92 10.08C49.92 9.16 50.74 8.67 51.38 8.67C52.16 8.67 52.66 8.87 53.09 9.17L53.09 7.12C52.61 6.75 52.13 6.34 51.06 6.34ZM60.92 9.87C60.92 7.72 59.51 6.34 57.54 6.34C55.44 6.34 53.84 8.07 53.84 10.14C53.84 12.36 55.70 13.73 57.68 13.73C58.72 13.73 59.50 13.52 59.98 13.22L59.98 11.21C59.60 11.43 58.87 11.68 57.82 11.68C57.03 11.68 56.37 11.35 56.16 10.65L60.92 10.65ZM56.19 9.34C56.38 8.63 56.86 8.29 57.48 8.29C58.09 8.29 58.69 8.68 58.69 9.34ZM75.56 13.52L78.54 4.36L75.56 4.36L74.35 9.12L72.90 4.36L71.15 4.36L69.73 9.12L68.48 4.36L65.50 4.36L68.51 13.52L70.44 13.52L72.04 8.67L73.64 13.52ZM82.30 6.34C80.61 6.34 79.16 7.67 79.16 10.02C79.16 12.55 80.61 13.73 82.17 13.73C83.17 13.73 83.90 13.13 84.25 12.36L84.25 13.52L86.60 13.52L86.60 6.55L84.25 6.55L84.25 7.19C83.79 6.70 83.03 6.34 82.30 6.34ZM82.80 8.64C83.32 8.64 83.84 8.89 84.25 9.21L84.25 9.88C84.25 10.90 83.45 11.35 82.87 11.35C82.11 11.35 81.62 10.77 81.62 10.02C81.62 9.28 82.11 8.64 82.80 8.64ZM90.86 13.52L90.86 3.68L88.51 3.68L88.51 13.52ZM95.13 13.52L95.13 3.68L92.78 3.68L92.78 13.52Z"></path></g><defs data-v-fde0c5aa=""><!----></defs><g data-v-fde0c5aa="" id="9320a3ba-d22f-45de-b9f0-22cac246f3d8" stroke="none" fill="#ffffff" transform="matrix(0.6511864181639715,0,0,0.6511864181639715,118.74272496122458,95.82898771493244)"><path d="M47.417 64.647V28.16c-1.451-.466-6.963-2.073-13.977-2.073-4.644 0-9.05.695-13.103 2.068v36.483c4.07-1.331 8.474-2.005 13.103-2.005 6.763 0 12.053 1.418 13.977 2.014zm-4.635-26.035l-.396 1.099c-.084-.031-8.506-2.991-17.021.001l-.387-1.102c8.918-3.134 17.445-.128 17.804.002zm0 7.006l-.396 1.098c-.084-.031-8.506-2.991-17.021.002l-.387-1.102c8.918-3.135 17.445-.128 17.804.002zm-17.418 8.106l-.387-1.102c8.918-3.135 17.446-.128 17.805.001l-.396 1.099c-.085-.031-8.507-2.992-17.022.002zM68.986 52.039l.002-.202 6.675-17.357v-6.32c-1.469-.471-6.982-2.073-13.977-2.073-4.645 0-9.048.702-13.102 2.075v36.484c4.071-1.331 8.472-2.014 13.102-2.014 6.756 0 12.047 1.417 13.977 2.014V47.721l-2.325 6.011-4.414 4.927.05-5.409c-2.876-.706-9.092-1.73-15.364.474l-.387-1.102c6.43-2.26 12.654-1.328 15.763-.583zm2.043-13.427l-.396 1.099c-.084-.031-8.505-2.991-17.021.001l-.387-1.102c8.918-3.134 17.444-.128 17.804.002zm-17.418 8.106l-.387-1.102c8.919-3.135 17.445-.128 17.805.001l-.396 1.098c-.085-.03-8.506-2.99-17.022.003z"></path><path d="M80.5 35.216l-3.669 9.486v21.582l-.782-.282c-.061-.022-6.202-2.201-14.363-2.201-4.793 0-9.333.741-13.493 2.203l-.196.069-.196-.07c-.061-.022-6.202-2.201-14.362-2.201-4.793 0-9.333.741-13.493 2.203l-.777.273V31.032H15.5v38.881h65V35.216z"></path><path d="M76.729 34.961l-1.065 2.771-5.547 14.423-.001.181-.004 1.22-.008 2.037 2.294-2.56 3.266-8.493 1.168-3.036 2.178-5.666L76.832 35zM80.5 31.032h-3.668v2.717L80.5 35.16z"></path><circle cx="28.122" cy="88.492" r="2.242"></circle><path d="M8.406 27.812l-.991 2.008-2.216.322 1.603 1.563-.378 2.207 1.982-1.042 1.982 1.042-.379-2.207 1.604-1.563-2.216-.322zM28.869 8.205l-.684-1.386-.684 1.386-1.53.222 1.107 1.079-.261 1.524 1.368-.719 1.368.719-.261-1.524 1.107-1.079zM86.98 69.95l1.369.719-.262-1.523 1.107-1.079-1.529-.223-.685-1.386-.684 1.386-1.529.223 1.107 1.079-.262 1.523zM86.98 14.135l-.902 2.777h-2.919l2.361 1.717-.902 2.776 2.362-1.716 2.362 1.716-.902-2.776 2.362-1.717h-2.92z"></path><circle cx="79.024" cy="7.509" r="2.242"></circle><circle cx="88.517" cy="48.986" r="1.786"></circle><circle cx="14.852" cy="17.155" r="2.361"></circle><path d="M21.877 88.514c.326.083.655.156.988.223l.099-.49A21.421 21.421 0 0 1 22 88.03l-.123.484zM6.758 71.81c.097.653.228 1.309.388 1.95l.485-.122a19.602 19.602 0 0 1-.379-1.901l-.494.073zM18.134 87.172c.597.283 1.216.54 1.838.763l.169-.471a19.734 19.734 0 0 1-1.793-.744l-.214.452zM7.04 68.852c0-.327.008-.655.024-.985l-.499-.024a20.042 20.042 0 0 0-.001 1.989l.499-.024a19.031 19.031 0 0 1-.023-.956zM11.787 82.448c.441.49.914.964 1.404 1.41l.337-.37a19.744 19.744 0 0 1-1.37-1.375l-.371.335zM7.724 75.663c.222.619.478 1.237.762 1.837l.452-.214a19.728 19.728 0 0 1-.743-1.792l-.471.169zM9.423 79.253a20.34 20.34 0 0 0 1.104 1.655l.402-.297a20.23 20.23 0 0 1-1.077-1.615l-.429.257zM14.726 85.124c.532.396 1.088.769 1.653 1.108l.258-.429a19.786 19.786 0 0 1-1.612-1.081l-.299.402zM7.427 64.949l-.49-.098a20.43 20.43 0 0 0-.174.998l.494.073c.049-.324.106-.649.17-.973zM89.076 76.982l.498.046c.031-.336.05-.675.057-1.017l-.5-.01c-.007.33-.026.657-.055.981zM85.711 84.731l.374.332c.493-.555.944-1.152 1.342-1.773l-.421-.27a13.63 13.63 0 0 1-1.295 1.711zM82.404 87.441l.252.432c.639-.373 1.253-.8 1.826-1.27l-.317-.387c-.553.453-1.145.866-1.761 1.225zM88.015 81.128l.459.199c.295-.679.538-1.387.721-2.104l-.484-.124a13.682 13.682 0 0 1-.696 2.029zM78.417 88.985l.104.489a13.98 13.98 0 0 0 2.131-.636l-.181-.466a13.28 13.28 0 0 1-2.054.613zM75.302 89.28l-.01.5a13.827 13.827 0 0 0 1.018-.016l-.025-.499c-.326.017-.652.024-.983.015zM88.267 36.377h.5v2h-.5zM88.267 28.377h.5v2h-.5zM88.267 40.377h.5v2h-.5zM88.267 32.377h.5v2h-.5z"></path></g><!----></svg>